<?xml version="1.0" encoding="UTF-8" standalone="no" ?>
<!DOCTYPE svg PUBLIC "-//W3C//DTD SVG 1.1//EN" "http://www.w3.org/Graphics/SVG/1.1/DTD/svg11.dtd">
<svg xmlns="http://www.w3.org/2000/svg" xmlns:xlink="http://www.w3.org/1999/xlink" version="1.1" width="16" height="15.2341" viewBox="242.1679851615 242.45442466359998 16 15.2341" xml:space="preserve">
<desc>Created with Fabric.js 5.3.0</desc>
<defs>
</defs>
<g transform="matrix(1.3389081482 0 0 1.3389081416 250.1679851615 250.0714746636)" id="k-EJ76aU9BHuGtGG0LJIT"  >
<g style="" vector-effect="non-scaling-stroke"   >
		<g transform="matrix(0.004610951 0 0 -0.0045582626 -0.1679851615 0)" id="dpyoQ_N3WfoBMF9BwRK9V"  >
<path style="stroke: none; stroke-width: 0; stroke-dasharray: none; stroke-linecap: butt; stroke-dashoffset: 0; stroke-linejoin: miter; stroke-miterlimit: 4; fill: rgb(0,0,0); fill-rule: nonzero; opacity: 1;" vector-effect="non-scaling-stroke"  transform=" translate(0, 0)" d="M 20.4002 1208.0635 C 3.4002000000000017 1185.0635 -38.5998 1149.0635 -72.5998 1127.0635 C -175.59980000000002 1057.0635 -221.59980000000002 1080.0635 -186.59980000000002 1183.0635 C -177.59980000000002 1208.0635 -170.59980000000002 1231.0635 -170.59980000000002 1233.0635 C -170.59980000000002 1237.0635 -228.59980000000002 1226.0635 -313.5998 1205.0635 C -398.5998 1184.0635 -513.5998 1136.0635 -543.5998 1108.0635 C -566.5998 1088.0635 -594.5998 1036.0635 -586.5998 1029.0635 C -583.5998 1026.0635 -552.5998 1040.0635 -518.5998 1061.0635 C -409.59979999999996 1127.0635 -346.59979999999996 1105.0635 -345.59979999999996 1001.0635 C -344.59979999999996 971.0635 -349.59979999999996 934.0635 -356.59979999999996 919.0635 C -367.59979999999996 892.0635 -368.59979999999996 892.0635 -375.59979999999996 943.0635 C -382.59979999999996 994.0635 -384.59979999999996 995.0635 -409.59979999999996 989.0635 C -467.59979999999996 976.0635 -533.5998 932.0635 -617.5998 854.0635 C -777.5998 704.0635 -845.5998 631.0635 -864.5998 588.0635 C -874.5998 565.0635 -886.5998 546.0635 -891.5998 546.0635 C -895.5998 546.0635 -901.5998 564.0635 -905.5998 586.0635 C -913.5998 632.0635 -924.5998 635.0635 -985.5998 607.0635 C -1017.5998 593.0635 -1033.5998 576.0635 -1058.5998 528.0635 C -1081.5998 485.0635 -1098.5998 465.0635 -1120.5998 458.0635 C -1148.5998 448.0635 -1149.5998 449.0635 -1152.5998 479.0635 C -1154.5998 505.0635 -1163.5998 488.0635 -1192.5998 396.0635 C -1257.5998 197.06349999999998 -1263.5998 160.06349999999998 -1257.5998 -13.936500000000024 C -1245.5998 -371.9365 -1142.5998 -623.9365 -910.5998 -866.9365 C -859.5998 -920.9365 -787.5998 -986.9365 -751.5998 -1013.9365 C -643.5998 -1094.9365 -476.59979999999996 -1172.9365 -285.59979999999996 -1229.9365 C -206.59979999999996 -1253.9365 7.400200000000041 -1253.9365 134.40020000000004 -1230.9365 C 184.40020000000004 -1221.9365 258.40020000000004 -1210.9365 299.40020000000004 -1207.9365 C 348.40020000000004 -1202.9365 403.40020000000004 -1188.9365 459.40020000000004 -1166.9365 C 551.4002 -1129.9365 697.4002 -1051.9365 729.4002 -1021.9365 C 739.4002 -1011.9365 753.4002 -1003.9365 760.4002 -1003.9365 C 781.4002 -1003.9365 1004.4002 -769.9365 1051.4002 -698.9365 C 1196.4002 -477.9365 1259.4002 -249.93650000000002 1259.4002 51.063499999999976 C 1258.4002 183.06349999999998 1257.4002 198.06349999999998 1245.4002 176.06349999999998 C 1222.4002 135.06349999999998 1192.4002 0.06349999999997635 1174.4002 -135.93650000000002 C 1156.4002 -273.9365 1145.4002 -311.9365 1087.4002 -418.9365 C 1066.4002 -456.9365 1035.4002 -516.9365 1019.4002 -550.9365 C 980.4002 -631.9365 906.4002 -703.9365 845.4002 -718.9365 L 799.4002 -730.9365 L 797.4002 -594.9365 C 795.4002 -416.9365 796.4002 -403.9365 825.4002 -301.9365 C 859.4002 -178.93650000000002 857.4002 -135.93650000000002 814.4002 -67.93650000000002 C 782.4002 -17.936500000000024 779.4002 -7.936500000000024 785.4002 35.063499999999976 L 791.4002 82.06349999999998 L 719.4002 111.06349999999998 C 634.4002 145.06349999999998 639.4002 148.06349999999998 584.4002 29.063499999999976 C 533.4002 -80.93650000000002 508.40020000000004 -107.93650000000002 416.40020000000004 -152.93650000000002 C 371.40020000000004 -174.93650000000002 345.40020000000004 -183.93650000000002 358.40020000000004 -172.93650000000002 L 381.40020000000004 -153.93650000000002 L 263.40020000000004 -153.93650000000002 C 104.40020000000004 -153.93650000000002 36.40020000000004 -170.93650000000002 -60.59979999999996 -234.93650000000002 C -143.59979999999996 -289.9365 -194.59979999999996 -352.9365 -187.59979999999996 -390.9365 C -185.59979999999996 -403.9365 -187.59979999999996 -413.9365 -192.59979999999996 -413.9365 C -196.59979999999996 -413.9365 -205.59979999999996 -424.9365 -212.59979999999996 -437.9365 C -222.59979999999996 -460.9365 -319.59979999999996 -533.9365 -338.59979999999996 -533.9365 C -356.59979999999996 -533.9365 -377.59979999999996 -570.9365 -399.59979999999996 -637.9365 C -416.59979999999996 -692.9365 -434.59979999999996 -721.9365 -482.59979999999996 -775.9365 L -543.5998 -844.9365 L -532.5998 -901.9365 C -526.5998 -932.9365 -518.5998 -976.9365 -515.5998 -998.9365 L -510.59979999999996 -1038.9365 L -551.5998 -993.9365 C -629.5998 -906.9365 -699.5998 -817.9365 -710.5998 -788.9365 C -717.5998 -771.9365 -728.5998 -703.9365 -735.5998 -636.9365 C -749.5998 -504.9365 -751.5998 -499.9365 -837.5998 -396.9365 C -862.5998 -367.9365 -908.5998 -288.9365 -940.5998 -220.93650000000002 L -999.5998 -96.93650000000002 L -979.5998 -23.936500000000024 C -969.5998 17.063499999999976 -960.5998 73.06349999999998 -960.5998 103.06349999999998 C -960.5998 150.06349999999998 -963.5998 158.06349999999998 -991.5998 178.06349999999998 C -1027.5998 204.06349999999998 -1120.5998 340.0635 -1120.5998 366.0635 C -1120.5998 386.0635 -1101.5998 404.0635 -1037.5998 440.0635 C -985.5998 470.0635 -983.5998 469.0635 -1006.5998 424.0635 C -1022.5998 393.0635 -1021.5998 376.0635 -1001.5998 282.0635 C -984.5998 204.06349999999998 -982.5998 204.06349999999998 -875.5998 240.06349999999998 L -780.5998 271.0635 L -780.5998 314.0635 C -780.5998 343.0635 -786.5998 362.0635 -801.5998 377.0635 C -829.5998 405.0635 -820.5998 425.0635 -742.5998 504.0635 C -705.5998 541.0635 -651.5998 599.0635 -622.5998 634.0635 C -566.92093 699.31218 -503.86256999999995 748.85582 -431.53166999999996 783.4351899999999 C -337.58126999999996 828.3502299999999 -227.98681999999997 848.01856 -98.59979999999996 844.0635 C 18.40020000000004 841.0635 28.40020000000004 839.0635 94.40020000000004 806.0635 C 141.40020000000004 783.0635 190.40020000000004 745.0635 244.40020000000004 694.0635 L 324.40020000000004 616.0635 L 376.40020000000004 668.0635 C 405.40020000000004 697.0635 429.40020000000004 724.0635 429.40020000000004 728.0635 C 429.40020000000004 732.0635 412.40020000000004 744.0635 392.40020000000004 755.0635 C 333.40020000000004 785.0635 313.40020000000004 814.0635 318.40020000000004 863.0635 C 319.40020000000004 870.0635 339.40020000000004 876.0635 369.40020000000004 878.0635 L 418.40020000000004 881.0635 L 344.40020000000004 961.0635 C 303.40020000000004 1005.0635 270.40020000000004 1045.0635 269.40020000000004 1049.0635 C 269.40020000000004 1054.0635 290.40020000000004 1046.0635 315.40020000000004 1032.0635 C 341.40020000000004 1017.0635 378.40020000000004 1003.0635 398.40020000000004 1000.0635 C 443.40020000000004 994.0635 543.4002 1027.0635 547.4002 1051.0635 C 550.4002 1064.0635 546.4002 1066.0635 531.4002 1062.0635 C 513.4002 1056.0635 511.40020000000004 1059.0635 516.4002 1095.0635 C 521.4002 1131.0635 519.4002 1136.0635 491.40020000000004 1150.0635 C 474.40020000000004 1159.0635 458.40020000000004 1166.0635 454.40020000000004 1166.0635 C 451.40020000000004 1166.0635 449.40020000000004 1140.0635 449.40020000000004 1107.0635 L 449.40020000000004 1049.0635 L 397.40020000000004 1061.0635 L 344.40020000000004 1073.0635 L 344.40020000000004 1142.0635 L 344.40020000000004 1211.0635 L 286.40020000000004 1222.0635 C 254.40020000000004 1229.0635 188.40020000000004 1237.0635 140.40020000000004 1241.0635 L 52.40020000000004 1248.0635 z M -47.5998 979.0635 C -65.5998 977.0635 -95.5998 977.0635 -112.5998 979.0635 C -130.59980000000002 981.0635 -116.5998 983.0635 -80.5998 983.0635 C -44.5998 983.0635 -30.599800000000002 981.0635 -47.5998 979.0635 z M -183.5998 970.0635 C -186.5998 967.0635 -195.5998 966.0635 -202.5998 969.0635 C -210.5998 972.0635 -207.5998 975.0635 -196.5998 975.0635 C -185.5998 976.0635 -179.5998 973.0635 -183.5998 970.0635 z M -869.5998 479.0635 C -857.5998 446.0635 -864.5998 426.0635 -889.5998 426.0635 C -900.5998 426.0635 -911.5998 418.0635 -913.5998 409.0635 C -916.5998 399.0635 -918.5998 404.0635 -919.5998 421.0635 C -920.5998 438.0635 -923.5998 461.0635 -926.5998 473.0635 C -932.5998 493.0635 -924.5998 499.0635 -887.5998 505.0635 C -883.5998 505.0635 -875.5998 494.0635 -869.5998 479.0635 z M -903.5998 289.0635 C -906.5998 279.0635 -908.5998 287.0635 -908.5998 306.0635 C -908.5998 325.0635 -906.5998 333.0635 -903.5998 324.0635 C -901.5998 314.0635 -901.5998 298.0635 -903.5998 289.0635 z M 329.4002 -198.9365 C 329.4002 -200.9365 319.4002 -207.9365 307.4002 -213.9365 C 285.4002 -224.9365 285.4002 -223.9365 303.4002 -209.9365 C 324.4002 -192.9365 329.4002 -190.9365 329.4002 -198.9365 z M 279.4002 -227.9365 C 279.4002 -229.9365 271.4002 -237.9365 262.4002 -244.9365 C 246.40019999999998 -257.9365 245.40019999999998 -256.9365 258.4002 -240.9365 C 271.4002 -224.9365 279.4002 -219.9365 279.4002 -227.9365 z M 209.4002 -278.9365 C 202.4002 -286.9365 192.4002 -293.9365 186.4002 -293.9365 C 180.4002 -293.9365 184.4002 -286.9365 195.4002 -278.9365 C 220.4002 -259.9365 225.4002 -259.9365 209.4002 -278.9365 z M 159.4002 -308.9365 C 152.4002 -316.9365 142.4002 -323.9365 136.4002 -323.9365 C 130.4002 -323.9365 134.4002 -316.9365 145.4002 -308.9365 C 170.4002 -289.9365 175.4002 -289.9365 159.4002 -308.9365 z M 95.4002 -338.9365 C 84.4002 -346.9365 70.4002 -353.9365 65.4002 -353.9365 C 59.4002 -352.9365 65.4002 -346.9365 79.4002 -338.9365 C 111.4002 -319.9365 119.4002 -320.9365 95.4002 -338.9365 z M -33.5998 -379.9365 C -36.5998 -382.9365 -45.5998 -383.9365 -52.5998 -380.9365 C -60.5998 -377.9365 -57.5998 -374.9365 -46.5998 -374.9365 C -35.5998 -373.9365 -29.599800000000002 -376.9365 -33.5998 -379.9365 z" stroke-linecap="round" />
</g>
		<g transform="matrix(0.004610951 0 0 -0.0045582626 2.0097990029 -2.1232317284)" id="-iTWJ2_KP1NJkJPEv2NKU"  >
<path style="stroke: none; stroke-width: 1; stroke-dasharray: none; stroke-linecap: butt; stroke-dashoffset: 0; stroke-linejoin: miter; stroke-miterlimit: 4; fill: rgb(0,0,0); fill-rule: nonzero; opacity: 1;" vector-effect="non-scaling-stroke"  transform=" translate(-2202.9067405838, -2169.7349672618)" d="M 2498 2623 C 2482 2619 2483 2614 2505 2570 C 2519 2543 2530 2519 2530 2516 C 2530 2514 2503 2509 2470 2505 C 2414 2499 2404 2501 2337 2533 L 2264 2567 L 2227 2507 C 2192 2452 2191 2448 2212 2455 C 2225 2458 2269 2464 2311 2467 L 2387 2472 L 2414 2429 C 2437 2390 2438 2384 2424 2375 C 2416 2370 2352 2328 2282 2284 C 2212 2239 2061 2143 1945 2070 C 1830 1997 1733 1936 1731 1934 C 1724 1928 1916 1712 1929 1711 C 1946 1710 1999 1764 2076 1862 C 2108 1902 2215 2033 2314 2153 L 2495 2371 L 2555 2364 C 2676 2349 2675 2349 2675 2400 L 2675 2445 L 2623 2459 C 2565 2474 2562 2480 2584 2540 C 2596 2571 2595 2578 2578 2603 C 2559 2629 2539 2634 2498 2623 z" stroke-linecap="round" />
</g>
		<g transform="matrix(0.004610951 0 0 -0.0046109531 4.9244096867 -1.9210016011)" id="KsnwPnFR9R4RfACgSrOqn"  >
<path style="stroke: none; stroke-width: 1; stroke-dasharray: none; stroke-linecap: butt; stroke-dashoffset: 0; stroke-linejoin: miter; stroke-miterlimit: 4; fill: rgb(0,0,0); fill-rule: nonzero; opacity: 1;" vector-effect="non-scaling-stroke"  transform=" translate(-2839.4131315877, -2106.115974376)" d="M 2720 2312 C 2720 2292 2843 2062 2898 1981 L 2955 1896 L 2958 1940 C 2963 2004 2946 2052 2888 2133 C 2812 2240 2720 2338 2720 2312 z" stroke-linecap="round" />
</g>
</g>
</g>
</svg>