<?xml version="1.0" standalone="no"?>
<!DOCTYPE svg PUBLIC "-//W3C//DTD SVG 20010904//EN"
 "http://www.w3.org/TR/2001/REC-SVG-20010904/DTD/svg10.dtd">
<svg version="1.0" xmlns="http://www.w3.org/2000/svg"
 width="347.000000pt" height="341.000000pt" viewBox="0 0 347.000000 341.000000"
 preserveAspectRatio="xMidYMid meet">

<g transform="translate(0.000000,341.000000) scale(0.100000,-0.100000)"
fill="#000000" stroke="none">
<path d="M1751 2912 c-17 -23 -59 -59 -93 -81 -103 -70 -149 -47 -114 56 9 25
16 48 16 50 0 4 -58 -7 -143 -28 -85 -21 -200 -69 -230 -97 -23 -20 -51 -72
-43 -79 3 -3 34 11 68 32 109 66 172 44 173 -60 1 -30 -4 -67 -11 -82 -11 -27
-12 -27 -19 24 -7 51 -9 52 -34 46 -58 -13 -124 -57 -208 -135 -160 -150 -228
-223 -247 -266 -10 -23 -22 -42 -27 -42 -4 0 -10 18 -14 40 -8 46 -19 49 -80
21 -32 -14 -48 -31 -73 -79 -23 -43 -40 -63 -62 -70 -28 -10 -29 -9 -32 21 -2
26 -11 9 -40 -83 -65 -199 -71 -236 -65 -410 12 -358 115 -610 347 -853 51
-54 123 -120 159 -147 108 -81 275 -159 466 -216 79 -24 293 -24 420 -1 50 9
124 20 165 23 49 5 104 19 160 41 92 37 238 115 270 145 10 10 24 18 31 18 21
0 244 234 291 305 145 221 208 449 208 750 -1 132 -2 147 -14 125 -23 -41 -53
-176 -71 -312 -18 -138 -29 -176 -87 -283 -21 -38 -52 -98 -68 -132 -39 -81
-113 -153 -174 -168 l-46 -12 -2 136 c-2 178 -1 191 28 293 34 123 32 166 -11
234 -32 50 -35 60 -29 103 l6 47 -72 29 c-85 34 -80 37 -135 -82 -51 -110 -76
-137 -168 -182 -45 -22 -71 -31 -58 -20 l23 19 -118 0 c-159 0 -227 -17 -324
-81 -83 -55 -134 -118 -127 -156 2 -13 0 -23 -5 -23 -4 0 -13 -11 -20 -24 -10
-23 -107 -96 -126 -96 -18 0 -39 -37 -61 -104 -17 -55 -35 -84 -83 -138 l-61
-69 11 -57 c6 -31 14 -75 17 -97 l5 -40 -41 45 c-78 87 -148 176 -159 205 -7
17 -18 85 -25 152 -14 132 -16 137 -102 240 -25 29 -71 108 -103 176 l-59 124
20 73 c10 41 19 97 19 127 0 47 -3 55 -31 75 -36 26 -129 162 -129 188 0 20
19 38 83 74 52 30 54 29 31 -16 -16 -31 -15 -48 5 -142 17 -78 19 -78 126 -42
l95 31 0 43 c0 29 -6 48 -21 63 -28 28 -19 48 59 127 37 37 91 95 120 130 128
150 295 217 524 210 117 -3 127 -5 193 -38 47 -23 96 -61 150 -112 l80 -78 52
52 c29 29 53 56 53 60 0 4 -17 16 -37 27 -59 30 -79 59 -74 108 1 7 21 13 51
15 l49 3 -74 80 c-41 44 -74 84 -75 88 0 5 21 -3 46 -17 26 -15 63 -29 83 -32
45 -6 145 27 149 51 3 13 -1 15 -16 11 -18 -6 -20 -3 -15 33 5 36 3 41 -25 55
-17 9 -33 16 -37 16 -3 0 -5 -26 -5 -59 l0 -58 -52 12 -53 12 0 69 0 69 -58
11 c-32 7 -98 15 -146 19 l-88 7 -32 -40z m-68 -229 c-18 -2 -48 -2 -65 0 -18
2 -4 4 32 4 36 0 50 -2 33 -4z m-136 -9 c-3 -3 -12 -4 -19 -1 -8 3 -5 6 6 6
11 1 17 -2 13 -5z m-686 -491 c12 -33 5 -53 -20 -53 -11 0 -22 -8 -24 -17 -3
-10 -5 -5 -6 12 -1 17 -4 40 -7 52 -6 20 2 26 39 32 4 0 12 -11 18 -26z m-34
-190 c-3 -10 -5 -2 -5 17 0 19 2 27 5 18 2 -10 2 -26 0 -35z m1233 -488 c0 -2
-10 -9 -22 -15 -22 -11 -22 -10 -4 4 21 17 26 19 26 11z m-50 -29 c0 -2 -8
-10 -17 -17 -16 -13 -17 -12 -4 4 13 16 21 21 21 13z m-70 -51 c-7 -8 -17 -15
-23 -15 -6 0 -2 7 9 15 25 19 30 19 14 0z m-50 -30 c-7 -8 -17 -15 -23 -15 -6
0 -2 7 9 15 25 19 30 19 14 0z m-64 -30 c-11 -8 -25 -15 -30 -15 -6 1 0 7 14
15 32 19 40 18 16 0z m-129 -41 c-3 -3 -12 -4 -19 -1 -8 3 -5 6 6 6 11 1 17
-2 13 -5z"/>
<path d="M2498 2623 c-16 -4 -15 -9 7 -53 14 -27 25 -51 25 -54 0 -2 -27 -7
-60 -11 -56 -6 -66 -4 -133 28 l-73 34 -37 -60 c-35 -55 -36 -59 -15 -52 13 3
57 9 99 12 l76 5 27 -43 c23 -39 24 -45 10 -54 -8 -5 -72 -47 -142 -91 -70
-45 -221 -141 -337 -214 -115 -73 -212 -134 -214 -136 -7 -6 185 -222 198
-223 17 -1 70 53 147 151 32 40 139 171 238 291 l181 218 60 -7 c121 -15 120
-15 120 36 l0 45 -52 14 c-58 15 -61 21 -39 81 12 31 11 38 -6 63 -19 26 -39
31 -80 20z"/>
<path d="M2720 2312 c0 -20 123 -250 178 -331 l57 -85 3 44 c5 64 -12 112 -70
193 -76 107 -168 205 -168 179z"/>
</g>
</svg>
